<svg version="1.0" xmlns="http://www.w3.org/2000/svg" width="301" height="209" viewBox="0 0 301 209">
  <style>
    @media (prefers-color-scheme: dark) {
      #logo {
        fill: #FAFAFA;
      }
    }
  </style>
  <g id="logo" transform="translate(0 ,209) scale(0.1,-0.1)" fill="#1B1B1B" stroke="none">
    <path d="M146 2080 c-84 -27 -99 -82 -94 -355 3 -219 7 -234 65 -272 41 -27
    162 -25 200 3 58 42 63 68 63 299 0 199 -1 213 -22 255 -14 27 -35 51 -53 59
    -37 18 -120 24 -159 11z m99 -320 l0 -215 -30 0 -30 0 -3 204 c-3 215 1 235
    42 229 21 -3 21 -8 21 -218z"/>
    <path d="M554 2076 c-16 -12 -19 -29 -22 -125 l-4 -111 -44 0 c-46 0 -84 -25
    -84 -55 0 -30 38 -55 84 -55 l44 0 4 -135 c3 -150 11 -168 69 -168 58 0 59 7
    59 328 0 247 -2 294 -16 313 -18 25 -60 29 -90 8z"/>
    <path d="M897 2076 c-11 -12 -15 -57 -19 -204 -4 -183 -5 -191 -31 -235 -15
    -25 -45 -59 -66 -76 -48 -39 -58 -64 -37 -96 31 -47 98 -26 163 50 l40 46 35
    -43 c40 -49 97 -84 121 -75 9 3 23 17 32 31 21 31 11 51 -52 109 -70 64 -76
    85 -81 295 -5 199 -9 212 -62 212 -16 0 -35 -6 -43 -14z"/>
    <path d="M1276 2074 c-13 -12 -16 -38 -16 -120 l0 -104 -61 0 c-79 0 -99 -11
    -99 -55 0 -44 20 -55 99 -55 l61 0 0 -144 c0 -159 4 -169 62 -169 57 0 58 7
    58 333 0 275 -1 298 -18 313 -23 21 -66 22 -86 1z"/>
    <path d="M1621 2079 c-89 -27 -114 -72 -114 -209 -1 -119 18 -164 81 -195 41
    -20 41 -20 42 -77 l0 -58 -54 0 c-63 0 -89 -18 -84 -59 5 -45 35 -52 231 -49
    164 3 180 5 193 22 39 54 6 86 -87 86 l-69 0 0 58 0 57 41 20 c67 32 81 68 77
    202 -3 123 -14 150 -77 186 -37 22 -132 31 -180 16z m123 -121 c11 -15 16 -45
    16 -88 0 -82 -17 -110 -65 -110 -52 0 -65 20 -65 103 0 89 16 117 65 117 24 0
    39 -7 49 -22z"/>
    <path d="M1984 2076 c-18 -14 -19 -29 -19 -315 0 -269 2 -302 17 -317 20 -20
    73 -23 91 -5 8 8 14 61 17 149 l5 137 40 3 c49 4 65 17 65 52 0 35 -19 50 -70
    57 l-40 6 0 107 c0 91 -3 109 -18 123 -23 21 -62 22 -88 3z"/>
    <path d="M22 1234 c-25 -17 -29 -56 -8 -73 10 -8 306 -10 1102 -9 l1089 3 10
    29 c8 24 6 31 -14 47 -22 18 -58 19 -1090 19 -949 0 -1069 -2 -1089 -16z"/>
    <path d="M1823 946 l-28 -24 -3 -410 c-3 -453 -1 -471 55 -493 41 -15 90 -3
    111 29 15 23 17 65 20 397 4 420 1 467 -33 501 -32 32 -85 32 -122 0z"/>
    <path d="M2875 958 c-43 -23 -45 -33 -45 -244 0 -189 1 -203 21 -228 17 -22
    29 -26 68 -26 82 0 85 8 89 237 2 130 -1 205 -8 223 -18 44 -80 63 -125 38z"/>
    <path d="M228 949 c-56 -13 -111 -54 -138 -101 -19 -34 -23 -56 -23 -122 0
    -134 45 -194 162 -216 71 -13 457 -13 520 1 103 22 151 78 159 187 6 92 -11
    148 -59 194 -63 60 -108 68 -363 67 -122 -1 -238 -5 -258 -10z m486 -171 c22
    -31 20 -74 -4 -98 -19 -19 -33 -20 -221 -20 -119 0 -208 4 -220 10 -15 8 -19
    21 -19 58 0 27 5 53 12 60 9 9 73 12 224 12 209 0 213 0 228 -22z"/>
    <path d="M1170 953 c-51 -10 -76 -53 -59 -102 14 -39 51 -51 160 -51 l89 0 0
    -100 0 -100 -104 0 c-159 0 -150 16 -154 -274 l-3 -236 25 -25 c25 -25 26 -25
    206 -25 139 0 188 3 209 15 48 25 48 100 -1 126 -13 7 -74 15 -141 17 l-118 4
    3 122 3 121 95 2 c52 2 105 5 118 8 42 10 52 57 52 248 0 205 -6 232 -58 247
    -36 10 -272 12 -322 3z"/>
    <path d="M2151 933 c-11 -10 -24 -32 -27 -50 -5 -26 -1 -37 19 -57 23 -23 35
    -26 92 -26 53 0 65 -3 65 -16 0 -32 -44 -93 -89 -125 -79 -55 -101 -80 -101
    -114 0 -111 117 -106 239 9 l58 56 29 -31 c59 -62 130 -109 163 -109 57 0 96
    60 75 114 -3 9 -36 38 -74 65 -64 47 -118 120 -104 143 3 4 28 8 55 8 78 0
    109 22 109 75 0 69 -21 75 -273 75 -190 0 -217 -2 -236 -17z"/>
    <path d="M2214 415 c-17 -7 -34 -20 -38 -30 -3 -9 -6 -93 -6 -185 0 -163 1
    -169 22 -184 19 -14 74 -16 400 -16 365 0 379 1 398 20 18 18 20 33 20 180 0
    97 -4 169 -11 184 -27 59 -135 51 -154 -11 l-9 -33 -248 0 c-210 0 -248 2
    -248 14 0 22 -42 63 -70 69 -14 3 -39 0 -56 -8z m616 -245 l0 -30 -245 0 -245
    0 0 30 0 30 245 0 245 0 0 -30z"/>
    <path d="M40 397 c-32 -16 -47 -58 -34 -94 14 -42 58 -52 237 -52 l157 -1 0
    -91 c0 -50 5 -99 10 -109 16 -30 81 -46 116 -29 41 20 54 53 54 146 l0 81 174
    4 c154 3 176 5 195 22 21 19 29 78 13 103 -19 29 -70 33 -480 33 -315 0 -423
    -3 -442 -13z"/>
  </g>
</svg>
